<svg width="27" height="27" xmlns="http://www.w3.org/2000/svg"><g stroke="#FFF" stroke-width=".5" fill="#FFF" fill-rule="evenodd"><path d="M21.784 21.784a11.64 11.64 0 0 1-8.284 3.432c-3.13 0-6.072-1.219-8.284-3.432A11.64 11.64 0 0 1 1.784 13.5c0-3.13 1.218-6.072 3.432-8.284A11.64 11.64 0 0 1 13.5 1.784c3.13 0 6.072 1.218 8.284 3.432a11.642 11.642 0 0 1 3.432 8.284c0 3.13-1.22 6.07-3.432 8.284M13.5 1C6.597 1 1 6.597 1 13.5S6.597 26 13.5 26 26 20.403 26 13.5 20.403 1 13.5 1"/><path d="M18.624 18.24H9.368a.37.37 0 0 0-.368.371c0 .205.165.37.368.37h9.256a.37.37 0 0 0 .368-.37.37.37 0 0 0-.368-.37m-.901-5.212a.367.367 0 0 0-.52-.03l-2.839 2.552V8.37a.37.37 0 0 0-.368-.37.37.37 0 0 0-.368.37v7.18L10.79 13a.367.367 0 0 0-.52.029.372.372 0 0 0 .029.523l3.084 2.772a.915.915 0 0 0 1.226 0l3.084-2.772a.372.372 0 0 0 .03-.523"/></g></svg>