<svg width="50" height="25" xmlns="http://www.w3.org/2000/svg"><g fill="none" fill-rule="evenodd"><g fill="#FF4838"><path d="M13.755 10.617V9.205c0-.637.154-.942 1.143-.942h1.21V5.91h-2.04c-2.538 0-3.346 1.127-3.346 3.125v1.582H8.996v2.406h1.726v7.114h3.033v-7.114h2.103l.282-2.405h-2.385v-.001z"/><path d="M20.784 20.784a11.64 11.64 0 0 1-8.284 3.432c-3.13 0-6.072-1.219-8.284-3.432A11.64 11.64 0 0 1 .784 12.5c0-3.13 1.218-6.072 3.432-8.284A11.64 11.64 0 0 1 12.5.784c3.13 0 6.072 1.218 8.284 3.432a11.642 11.642 0 0 1 3.432 8.284c0 3.13-1.22 6.07-3.432 8.284M12.5 0C5.597 0 0 5.597 0 12.5S5.597 25 12.5 25 25 19.403 25 12.5 19.403 0 12.5 0"/></g><g transform="translate(25)"><path d="M20.784 20.784a11.64 11.64 0 0 1-8.284 3.432c-3.13 0-6.072-1.219-8.284-3.432A11.64 11.64 0 0 1 .784 12.5c0-3.13 1.218-6.072 3.432-8.284A11.64 11.64 0 0 1 12.5.784c3.13 0 6.072 1.218 8.284 3.432a11.642 11.642 0 0 1 3.432 8.284c0 3.13-1.22 6.07-3.432 8.284M12.5 0C5.597 0 0 5.597 0 12.5S5.597 25 12.5 25 25 19.403 25 12.5 19.403 0 12.5 0" fill="#FF4838"/><circle fill="#FF4838" cx="12.5" cy="12.5" r="12.5"/><path d="M13.755 10.617V9.205c0-.637.154-.942 1.143-.942h1.21V5.91h-2.04c-2.538 0-3.346 1.127-3.346 3.125v1.582H8.996v2.406h1.726v7.114h3.033v-7.114h2.103l.282-2.405h-2.385v-.001z" fill="#FFF"/></g></g></svg>