<svg width="50" height="25" xmlns="http://www.w3.org/2000/svg" xmlns:xlink="http://www.w3.org/1999/xlink"><defs><path id="a" d="M0 25h25V0H0z"/><path id="c" d="M0 25h25V0H0z"/></defs><g fill="none" fill-rule="evenodd"><path d="M18.776 18.462h-2.564v-4.349c0-1.047-.397-1.763-1.328-1.763-.71 0-1.155.482-1.341.95-.07.167-.102.397-.102.63v4.532h-2.563v-7.95h2.563v1.09c.366-.534.984-1.3 2.345-1.3 1.688 0 2.99 1.113 2.99 3.512v4.648zM8.168 6.513c-.841 0-1.389.591-1.389 1.372 0 .767.534 1.372 1.357 1.372h.018c.856 0 1.39-.605 1.39-1.372-.019-.786-.533-1.372-1.376-1.372" fill="#FF4838"/><mask id="b" fill="#fff"><use xlink:href="#a"/></mask><path fill="#FF4838" mask="url(#b)" d="M6.8 18.462h2.562v-7.95H6.799z"/><path d="M20.784 20.784a11.64 11.64 0 0 1-8.284 3.432c-3.13 0-6.072-1.219-8.284-3.432A11.64 11.64 0 0 1 .784 12.5c0-3.13 1.218-6.072 3.432-8.284A11.64 11.64 0 0 1 12.5.784c3.13 0 6.072 1.218 8.284 3.432a11.642 11.642 0 0 1 3.432 8.284c0 3.13-1.22 6.07-3.432 8.284M12.5 0C5.597 0 0 5.597 0 12.5S5.597 25 12.5 25 25 19.403 25 12.5 19.403 0 12.5 0" fill="#FF4838" mask="url(#b)"/><g transform="translate(25)"><path d="M12.5 0C5.597 0 0 5.597 0 12.5S5.597 25 12.5 25 25 19.403 25 12.5 19.403 0 12.5 0" fill="#FF4838"/><path d="M18.776 18.462h-2.564v-4.349c0-1.047-.397-1.763-1.328-1.763-.71 0-1.155.482-1.341.95-.07.167-.102.397-.102.63v4.532h-2.563v-7.95h2.563v1.09c.366-.534.984-1.3 2.345-1.3 1.688 0 2.99 1.113 2.99 3.512v4.648zM8.168 6.513c-.841 0-1.389.591-1.389 1.372 0 .767.534 1.372 1.357 1.372h.018c.856 0 1.39-.605 1.39-1.372-.019-.786-.533-1.372-1.376-1.372" fill="#FFF"/><mask id="d" fill="#fff"><use xlink:href="#c"/></mask><path fill="#FFF" mask="url(#d)" d="M6.8 18.462h2.562v-7.95H6.799z"/></g></g></svg>