<svg width="50" height="25" xmlns="http://www.w3.org/2000/svg"><g fill="none" fill-rule="evenodd"><g fill="#FF4838"><path d="M20.894 8.432a6.22 6.22 0 0 1-1.793.492 3.122 3.122 0 0 0 1.372-1.727 6.255 6.255 0 0 1-1.982.758 3.122 3.122 0 0 0-5.32 2.848 8.864 8.864 0 0 1-6.436-3.262c-.27.46-.423.997-.423 1.57 0 1.083.551 2.039 1.39 2.598a3.112 3.112 0 0 1-1.415-.39v.038a3.125 3.125 0 0 0 2.506 3.062 3.144 3.144 0 0 1-1.41.053 3.126 3.126 0 0 0 2.916 2.169 6.262 6.262 0 0 1-4.622 1.292 8.833 8.833 0 0 0 4.786 1.403c5.743 0 8.883-4.758 8.883-8.883 0-.135-.003-.27-.009-.405a6.35 6.35 0 0 0 1.557-1.616"/><path d="M20.784 20.784a11.64 11.64 0 0 1-8.284 3.432c-3.13 0-6.072-1.219-8.284-3.432A11.64 11.64 0 0 1 .784 12.5c0-3.13 1.218-6.072 3.432-8.284A11.64 11.64 0 0 1 12.5.784c3.13 0 6.072 1.218 8.284 3.432a11.642 11.642 0 0 1 3.432 8.284c0 3.13-1.22 6.072-3.432 8.284M12.5 0C5.597 0 0 5.597 0 12.5S5.597 25 12.5 25 25 19.403 25 12.5 19.403 0 12.5 0"/></g><path d="M37.5 0C30.597 0 25 5.597 25 12.5S30.597 25 37.5 25 50 19.403 50 12.5 44.403 0 37.5 0" fill="#FF4838"/><path d="M45.894 8.432a6.22 6.22 0 0 1-1.793.492 3.122 3.122 0 0 0 1.372-1.727 6.255 6.255 0 0 1-1.982.758 3.122 3.122 0 0 0-5.32 2.848 8.864 8.864 0 0 1-6.436-3.262 3.09 3.09 0 0 0-.422 1.57c0 1.083.55 2.039 1.389 2.598a3.112 3.112 0 0 1-1.414-.39v.038a3.125 3.125 0 0 0 2.505 3.062 3.144 3.144 0 0 1-1.41.053 3.126 3.126 0 0 0 2.916 2.169 6.262 6.262 0 0 1-4.622 1.292 8.833 8.833 0 0 0 4.786 1.403c5.743 0 8.883-4.758 8.883-8.883 0-.135-.003-.27-.008-.405a6.35 6.35 0 0 0 1.556-1.616" fill="#FFF"/></g></svg>