<?xml version="1.0" encoding="UTF-8"?>
<svg width="27px" height="27px" viewBox="0 0 27 27" version="1.1" xmlns="http://www.w3.org/2000/svg" xmlns:xlink="http://www.w3.org/1999/xlink">
    <!-- Generator: Sketch 44 (41411) - http://www.bohemiancoding.com/sketch -->
    <title>Group 3</title>
    <desc>Created with Sketch.</desc>
    <defs></defs>
    <g id="Page-1" stroke="none" stroke-width="1" fill="none" fill-rule="evenodd">
        <g id="Artboard-Copy-6" transform="translate(-1133.000000, -11.000000)" stroke="#FFFFFF" stroke-width="0.5" fill="#FFFFFF">
            <g id="Group-3" transform="translate(1134.000000, 12.000000)">
                <path d="M20.7841667,20.7841667 C18.5716667,22.9966667 15.6291667,24.2158333 12.5,24.2158333 C9.37083333,24.2158333 6.42833333,22.9975 4.21583333,20.7841667 C2.00333333,18.5716667 0.784166667,15.6291667 0.784166667,12.5 C0.784166667,9.37083333 2.0025,6.42833333 4.21583333,4.21583333 C6.42833333,2.00333333 9.37083333,0.784166667 12.5,0.784166667 C15.6291667,0.784166667 18.5716667,2.0025 20.7841667,4.21583333 C22.9966667,6.42916667 24.2158333,9.37083333 24.2158333,12.5 C24.2158333,15.6291667 22.9966667,18.5708333 20.7841667,20.7841667 M12.5,0 C5.59666667,0 0,5.59666667 0,12.5 C0,19.4033333 5.59666667,25 12.5,25 C19.4033333,25 25,19.4033333 25,12.5 C25,5.59666667 19.4033333,0 12.5,0" id="Fill-3"></path>
                <g id="Page-1" transform="translate(8.000000, 7.000000)">
                    <path d="M9.62429379,10.2406873 L0.36819209,10.2406873 C0.164887006,10.2406873 0,10.4065969 0,10.6111628 C0,10.8157287 0.164830508,10.9816382 0.36819209,10.9816382 L9.62426554,10.9816382 C9.82762712,10.9816382 9.99245763,10.8157855 9.99245763,10.6111628 C9.99245763,10.4065969 9.82762712,10.2406873 9.62429379,10.2406873" id="Fill-1"></path>
                    <path d="M8.72276836,5.02862016 C8.58731638,4.87606977 8.35457627,4.86279587 8.20288136,4.99911628 L5.36440678,7.55057623 L5.36440678,0.370475452 C5.36440678,0.165909561 5.19957627,-5.68434189e-14 4.99621469,-5.68434189e-14 C4.7929096,-5.68434189e-14 4.6280226,0.165852713 4.6280226,0.370475452 L4.6280226,7.55057623 L1.78954802,4.9991447 C1.63793785,4.86282429 1.40516949,4.87612661 1.26966102,5.02864858 C1.13423729,5.18125581 1.14731638,5.4154677 1.2989548,5.55175969 L4.3829661,8.32384496 C4.55774011,8.481 4.7769209,8.55953488 4.99618644,8.55953488 C5.21536723,8.55953488 5.43457627,8.481 5.60940678,8.32393023 L8.69341808,5.55175969 C8.84511299,5.41538243 8.85822034,5.18117054 8.72276836,5.02862016" id="Fill-3"></path>
                </g>
            </g>
        </g>
    </g>
</svg>