<?xml version="1.0" encoding="UTF-8"?>
<svg width="50px" height="25px" viewBox="0 0 50 25" version="1.1" xmlns="http://www.w3.org/2000/svg" xmlns:xlink="http://www.w3.org/1999/xlink">
    <!-- Generator: Sketch 44 (41411) - http://www.bohemiancoding.com/sketch -->
    <title>Group 3</title>
    <desc>Created with Sketch.</desc>
    <defs></defs>
    <g id="Page-1" stroke="none" stroke-width="1" fill="none" fill-rule="evenodd">
        <g id="Artboard-Copy-6" transform="translate(-929.000000, -296.000000)">
            <g id="Group-3" transform="translate(929.000000, 296.000000)">
                <g id="Page-1-Copy" fill="#FF4838">
                    <path d="M13.755,10.6166667 L13.755,9.205 C13.755,8.5675 13.9091667,8.26333333 14.8983333,8.26333333 L16.1083333,8.26333333 L16.1083333,5.91 L14.0683333,5.91 C11.53,5.91 10.7216667,7.0375 10.7216667,9.035 L10.7216667,10.6175 L8.99583333,10.6175 L8.99583333,13.0233333 L10.7216667,13.0233333 L10.7216667,20.1366667 L13.755,20.1366667 L13.755,13.0233333 L15.8583333,13.0233333 L16.14,10.6175 L13.755,10.6175 L13.755,10.6166667 Z" id="Fill-1"></path>
                    <path d="M20.7841667,20.7841667 C18.5716667,22.9966667 15.6291667,24.2158333 12.5,24.2158333 C9.37083333,24.2158333 6.42833333,22.9975 4.21583333,20.7841667 C2.00333333,18.5716667 0.784166667,15.6291667 0.784166667,12.5 C0.784166667,9.37083333 2.0025,6.42833333 4.21583333,4.21583333 C6.42833333,2.00333333 9.37083333,0.784166667 12.5,0.784166667 C15.6291667,0.784166667 18.5716667,2.0025 20.7841667,4.21583333 C22.9966667,6.42916667 24.2158333,9.37083333 24.2158333,12.5 C24.2158333,15.6291667 22.9966667,18.5708333 20.7841667,20.7841667 M12.5,0 C5.59666667,0 0,5.59666667 0,12.5 C0,19.4033333 5.59666667,25 12.5,25 C19.4033333,25 25,19.4033333 25,12.5 C25,5.59666667 19.4033333,0 12.5,0" id="Fill-3"></path>
                </g>
                <g id="Page-1-Copy-2" transform="translate(25.000000, 0.000000)">
                    <path d="M20.7841667,20.7841667 C18.5716667,22.9966667 15.6291667,24.2158333 12.5,24.2158333 C9.37083333,24.2158333 6.42833333,22.9975 4.21583333,20.7841667 C2.00333333,18.5716667 0.784166667,15.6291667 0.784166667,12.5 C0.784166667,9.37083333 2.0025,6.42833333 4.21583333,4.21583333 C6.42833333,2.00333333 9.37083333,0.784166667 12.5,0.784166667 C15.6291667,0.784166667 18.5716667,2.0025 20.7841667,4.21583333 C22.9966667,6.42916667 24.2158333,9.37083333 24.2158333,12.5 C24.2158333,15.6291667 22.9966667,18.5708333 20.7841667,20.7841667 M12.5,0 C5.59666667,0 0,5.59666667 0,12.5 C0,19.4033333 5.59666667,25 12.5,25 C19.4033333,25 25,19.4033333 25,12.5 C25,5.59666667 19.4033333,0 12.5,0" id="Fill-3" fill="#FF4838"></path>
                    <circle id="Oval" fill="#FF4838" cx="12.5" cy="12.5" r="12.5"></circle>
                    <path d="M13.755,10.6166667 L13.755,9.205 C13.755,8.5675 13.9091667,8.26333333 14.8983333,8.26333333 L16.1083333,8.26333333 L16.1083333,5.91 L14.0683333,5.91 C11.53,5.91 10.7216667,7.0375 10.7216667,9.035 L10.7216667,10.6175 L8.99583333,10.6175 L8.99583333,13.0233333 L10.7216667,13.0233333 L10.7216667,20.1366667 L13.755,20.1366667 L13.755,13.0233333 L15.8583333,13.0233333 L16.14,10.6175 L13.755,10.6175 L13.755,10.6166667 Z" id="Fill-1" fill="#FFFFFF"></path>
                </g>
            </g>
        </g>
    </g>
</svg>