<?xml version="1.0" encoding="UTF-8"?>
<svg width="50px" height="25px" viewBox="0 0 50 25" version="1.1" xmlns="http://www.w3.org/2000/svg" xmlns:xlink="http://www.w3.org/1999/xlink">
    <!-- Generator: Sketch 44 (41411) - http://www.bohemiancoding.com/sketch -->
    <title>Group 3</title>
    <desc>Created with Sketch.</desc>
    <defs>
        <polygon id="path-1" points="0 25 25 25 25 0 0 0"></polygon>
        <polygon id="path-3" points="0 25 25 25 25 0 0 0"></polygon>
    </defs>
    <g id="Page-1" stroke="none" stroke-width="1" fill="none" fill-rule="evenodd">
        <g id="Artboard-Copy-6" transform="translate(-916.000000, -298.000000)">
            <g id="Group-3" transform="translate(916.000000, 298.000000)">
                <g id="Page-1-Copy-5">
                    <path d="M18.7758333,18.4625 C18.7758333,18.4625 16.2125,18.4625 16.2125,18.4625 L16.2125,14.1133333 C16.2125,13.0658333 15.815,12.35 14.8841667,12.35 C14.1733333,12.35 13.7291667,12.8316667 13.5425,13.2991667 C13.4725,13.4675 13.4408333,13.6966667 13.4408333,13.9308333 L13.4408333,18.4625 L10.8783333,18.4625 L10.8783333,10.5125 L13.4408333,10.5125 L13.4408333,11.6016667 C13.8075,11.0683333 14.425,10.3016667 15.7858333,10.3016667 C17.4741667,10.3016667 18.7758333,11.415 18.7758333,13.8141667 L18.7758333,18.4625 Z" id="Fill-1" fill="#FF4838"></path>
                    <path d="M8.16833333,6.51333333 C7.32666667,6.51333333 6.77916667,7.10416667 6.77916667,7.885 C6.77916667,8.65166667 7.3125,9.25666667 8.13583333,9.25666667 L8.15416667,9.25666667 C9.01,9.25666667 9.54333333,8.65166667 9.54333333,7.885 C9.525,7.09916667 9.01083333,6.51333333 8.16833333,6.51333333" id="Fill-3" fill="#FF4838"></path>
                    <mask id="mask-2" fill="white">
                        <use xlink:href="#path-1"></use>
                    </mask>
                    <g id="Clip-6"></g>
                    <polygon id="Fill-5" fill="#FF4838" mask="url(#mask-2)" points="6.79916667 18.4625 9.36166667 18.4625 9.36166667 10.5125 6.79916667 10.5125"></polygon>
                    <path d="M20.7841667,20.7841667 C18.5716667,22.9966667 15.6291667,24.2158333 12.5,24.2158333 C9.37083333,24.2158333 6.42833333,22.9975 4.21583333,20.7841667 C2.00333333,18.5716667 0.784166667,15.6291667 0.784166667,12.5 C0.784166667,9.37083333 2.0025,6.42833333 4.21583333,4.21583333 C6.42833333,2.00333333 9.37083333,0.784166667 12.5,0.784166667 C15.6291667,0.784166667 18.5716667,2.0025 20.7841667,4.21583333 C22.9966667,6.42916667 24.2158333,9.37083333 24.2158333,12.5 C24.2158333,15.6291667 22.9966667,18.5708333 20.7841667,20.7841667 M12.5,0 C5.59666667,0 0,5.59666667 0,12.5 C0,19.4033333 5.59666667,25 12.5,25 C19.4033333,25 25,19.4033333 25,12.5 C25,5.59666667 19.4033333,0 12.5,0" id="Fill-7" fill="#FF4838" mask="url(#mask-2)"></path>
                </g>
                <g id="Page-1-Copy-6" transform="translate(25.000000, 0.000000)">
                    <path d="M12.5,0 C5.59666667,0 0,5.59666667 0,12.5 C0,19.4033333 5.59666667,25 12.5,25 C19.4033333,25 25,19.4033333 25,12.5 C25,5.59666667 19.4033333,0 12.5,0" id="Fill-7" fill="#FF4838"></path>
                    <path d="M18.7758333,18.4625 C18.7758333,18.4625 16.2125,18.4625 16.2125,18.4625 L16.2125,14.1133333 C16.2125,13.0658333 15.815,12.35 14.8841667,12.35 C14.1733333,12.35 13.7291667,12.8316667 13.5425,13.2991667 C13.4725,13.4675 13.4408333,13.6966667 13.4408333,13.9308333 L13.4408333,18.4625 L10.8783333,18.4625 L10.8783333,10.5125 L13.4408333,10.5125 L13.4408333,11.6016667 C13.8075,11.0683333 14.425,10.3016667 15.7858333,10.3016667 C17.4741667,10.3016667 18.7758333,11.415 18.7758333,13.8141667 L18.7758333,18.4625 Z" id="Fill-1" fill="#FFFFFF"></path>
                    <path d="M8.16833333,6.51333333 C7.32666667,6.51333333 6.77916667,7.10416667 6.77916667,7.885 C6.77916667,8.65166667 7.3125,9.25666667 8.13583333,9.25666667 L8.15416667,9.25666667 C9.01,9.25666667 9.54333333,8.65166667 9.54333333,7.885 C9.525,7.09916667 9.01083333,6.51333333 8.16833333,6.51333333" id="Fill-3" fill="#FFFFFF"></path>
                    <mask id="mask-4" fill="white">
                        <use xlink:href="#path-3"></use>
                    </mask>
                    <g id="Clip-6"></g>
                    <polygon id="Fill-5" fill="#FFFFFF" mask="url(#mask-4)" points="6.79916667 18.4625 9.36166667 18.4625 9.36166667 10.5125 6.79916667 10.5125"></polygon>
                </g>
            </g>
        </g>
    </g>
</svg>