<?xml version="1.0" encoding="UTF-8"?>
<svg width="50px" height="25px" viewBox="0 0 50 25" version="1.1" xmlns="http://www.w3.org/2000/svg" xmlns:xlink="http://www.w3.org/1999/xlink">
    <!-- Generator: Sketch 44 (41411) - http://www.bohemiancoding.com/sketch -->
    <title>Group 3</title>
    <desc>Created with Sketch.</desc>
    <defs></defs>
    <g id="Page-1" stroke="none" stroke-width="1" fill="none" fill-rule="evenodd">
        <g id="Artboard-Copy-6" transform="translate(-966.000000, -298.000000)">
            <g id="Group-3" transform="translate(966.000000, 298.000000)">
                <g id="Page-1-Copy-4" fill="#FF4838">
                    <path d="M20.8941667,8.4325 C20.335,8.68083333 19.7325,8.84916667 19.1008333,8.92416667 C19.7458333,8.53833333 20.2408333,7.92666667 20.4733333,7.19666667 C19.87,7.555 19.2025,7.81416667 18.4908333,7.955 C17.9216667,7.34833333 17.11,6.96916667 16.2116667,6.96916667 C14.4875,6.96916667 13.09,8.36666667 13.09,10.0916667 C13.09,10.3358333 13.1175,10.5741667 13.1708333,10.8033333 C10.5758333,10.6733333 8.275,9.43 6.735,7.54083333 C6.46583333,8.00166667 6.3125,8.53833333 6.3125,9.11083333 C6.3125,10.1941667 6.86333333,11.15 7.70166667,11.7091667 C7.19,11.6925 6.70833333,11.5525 6.2875,11.3183333 L6.2875,11.3575 C6.2875,12.87 7.36416667,14.1316667 8.7925,14.4191667 C8.53083333,14.49 8.255,14.5283333 7.97,14.5283333 C7.76833333,14.5283333 7.57333333,14.5091667 7.3825,14.4725 C7.78,15.7125 8.93333333,16.6158333 10.2991667,16.6408333 C9.23083333,17.4783333 7.885,17.9775 6.42166667,17.9775 C6.17,17.9775 5.92083333,17.9625 5.67666667,17.9333333 C7.05916667,18.82 8.7,19.3358333 10.4625,19.3358333 C16.2058333,19.3358333 19.3458333,14.5783333 19.3458333,10.4525 C19.3458333,10.3175 19.3433333,10.1825 19.3375,10.0483333 C19.9466667,9.60833333 20.4758333,9.05833333 20.8941667,8.4325" id="Fill-1"></path>
                    <path d="M20.7841667,20.7841667 C18.5716667,22.9966667 15.6291667,24.2158333 12.5,24.2158333 C9.37083333,24.2158333 6.42833333,22.9975 4.21583333,20.7841667 C2.00333333,18.5716667 0.784166667,15.6291667 0.784166667,12.5 C0.784166667,9.37083333 2.0025,6.42833333 4.21583333,4.21583333 C6.42833333,2.00333333 9.37083333,0.784166667 12.5,0.784166667 C15.6291667,0.784166667 18.5716667,2.0025 20.7841667,4.21583333 C22.9966667,6.42916667 24.2158333,9.37083333 24.2158333,12.5 C24.2158333,15.6291667 22.9966667,18.5716667 20.7841667,20.7841667 M12.5,0 C5.59666667,0 0,5.59666667 0,12.5 C0,19.4033333 5.59666667,25 12.5,25 C19.4033333,25 25,19.4033333 25,12.5 C25,5.59666667 19.4033333,0 12.5,0" id="Fill-3"></path>
                </g>
                <g id="Page-1-Copy-6" transform="translate(25.000000, 0.000000)">
                    <path d="M12.5,0 C5.59666667,0 0,5.59666667 0,12.5 C0,19.4033333 5.59666667,25 12.5,25 C19.4033333,25 25,19.4033333 25,12.5 C25,5.59666667 19.4033333,0 12.5,0" id="Fill-3" fill="#FF4838"></path>
                    <path d="M20.8941667,8.4325 C20.335,8.68083333 19.7325,8.84916667 19.1008333,8.92416667 C19.7458333,8.53833333 20.2408333,7.92666667 20.4733333,7.19666667 C19.87,7.555 19.2025,7.81416667 18.4908333,7.955 C17.9216667,7.34833333 17.11,6.96916667 16.2116667,6.96916667 C14.4875,6.96916667 13.09,8.36666667 13.09,10.0916667 C13.09,10.3358333 13.1175,10.5741667 13.1708333,10.8033333 C10.5758333,10.6733333 8.275,9.43 6.735,7.54083333 C6.46583333,8.00166667 6.3125,8.53833333 6.3125,9.11083333 C6.3125,10.1941667 6.86333333,11.15 7.70166667,11.7091667 C7.19,11.6925 6.70833333,11.5525 6.2875,11.3183333 L6.2875,11.3575 C6.2875,12.87 7.36416667,14.1316667 8.7925,14.4191667 C8.53083333,14.49 8.255,14.5283333 7.97,14.5283333 C7.76833333,14.5283333 7.57333333,14.5091667 7.3825,14.4725 C7.78,15.7125 8.93333333,16.6158333 10.2991667,16.6408333 C9.23083333,17.4783333 7.885,17.9775 6.42166667,17.9775 C6.17,17.9775 5.92083333,17.9625 5.67666667,17.9333333 C7.05916667,18.82 8.7,19.3358333 10.4625,19.3358333 C16.2058333,19.3358333 19.3458333,14.5783333 19.3458333,10.4525 C19.3458333,10.3175 19.3433333,10.1825 19.3375,10.0483333 C19.9466667,9.60833333 20.4758333,9.05833333 20.8941667,8.4325" id="Fill-1" fill="#FFFFFF"></path>
                </g>
            </g>
        </g>
    </g>
</svg>